<?xml version="1.0" encoding="utf-8"?>
<!-- Generator: Adobe Illustrator 22.1.0, SVG Export Plug-In . SVG Version: 6.00 Build 0)  -->
<svg version="1.1" id="Layer_1" xmlns="http://www.w3.org/2000/svg" xmlns:xlink="http://www.w3.org/1999/xlink" x="0px" y="0px"
	 viewBox="0 0 512 512" style="enable-background:new 0 0 512 512;" xml:space="preserve">
<g>
	<path d="M157.6,213.8c-15.6,0-28.1,12.6-28.1,28.1c0,15.6,12.6,28.1,28.1,28.1s28.1-12.6,28.1-28.1S173.2,213.8,157.6,213.8z
		 M256,213.8c-15.6,0-28.1,12.6-28.1,28.1c0,15.6,12.6,28.1,28.1,28.1s28.1-12.6,28.1-28.1S271.6,213.8,256,213.8z M354.5,213.8
		c-15.6,0-28.1,12.6-28.1,28.1c0,15.6,12.6,28.1,28.1,28.1c15.6,0,28.1-12.6,28.1-28.1S370,213.8,354.5,213.8z M256,59.2
		c-124.3,0-225,81.8-225,182.8c0,41.8,17.5,80.1,46.5,111c-13.1,34.6-40.3,64-40.8,64.3c-5.8,6.2-7.4,15.1-4,22.8s11,12.7,19.4,12.7
		c54,0,96.7-22.6,122.2-40.7c25.4,8,52.8,12.6,81.6,12.6c124.3,0,225-81.8,225-182.8S380.3,59.2,256,59.2z M256,382.5
		c-23.5,0-46.7-3.6-68.9-10.6l-19.9-6.3L150,377.7c-12.6,8.9-29.8,18.8-50.5,25.5c6.4-10.6,12.7-22.6,17.5-35.3l9.3-24.7L108.2,324
		c-15.9-17-35-45-35-82.1c0-77.5,82-140.6,182.8-140.6s182.8,63.1,182.8,140.6S356.8,382.5,256,382.5z"/>
</g>
</svg>
